<svg xmlns="http://www.w3.org/2000/svg" width="120" height="119.998" viewBox="0 0 120 119.998">
  <g id="git-icon" transform="translate(-0.001)">
    <path id="パス_71" data-name="パス 71" d="M117.737,54.653,65.344,2.263a7.727,7.727,0,0,0-10.928,0l-10.88,10.88,13.8,13.8a9.178,9.178,0,0,1,11.622,11.7l13.3,13.3a9.185,9.185,0,1,1-5.508,5.185l-12.4-12.4V77.368a9.291,9.291,0,0,1,2.432,1.739A9.188,9.188,0,1,1,56.785,77.1V44.154a9.083,9.083,0,0,1-3.01-2.007,9.193,9.193,0,0,1-1.982-10.053L38.19,18.489,2.265,54.411a7.73,7.73,0,0,0,0,10.932l52.394,52.391a7.729,7.729,0,0,0,10.93,0l52.149-52.148a7.734,7.734,0,0,0,0-10.934" transform="translate(0)" fill="#de4c36"/>
  </g>
</svg>
