<svg xmlns="http://www.w3.org/2000/svg" width="150" height="100" viewBox="0 0 150 100">
  <g id="グループ_41" data-name="グループ 41" transform="translate(-169 -2040.242)">
    <g id="html-5" transform="translate(169 2040.242)">
      <path id="パス_40" data-name="パス 40" d="M91.956,70.766,83.62,159.979,46.145,169.9l-37.372-9.91L.445,70.766Z" transform="translate(-0.445 -70.766)" fill="#e44d26"/>
      <path id="パス_41" data-name="パス 41" d="M128,177.884l30.483-8.169,7.172-77.657H128v85.826Z" transform="translate(-82.548 -86.473)" fill="#f16529"/>
      <path id="パス_42" data-name="パス 42" d="M60.52,135.142H76.835V123.995H47.917l.276,2.991L51.027,157.7H76.835V146.557H61.574L60.52,135.142Z" transform="translate(-30.94 -106.285)" fill="#ebebeb"/>
      <path id="パス_43" data-name="パス 43" d="M69.535,236.542H57.958l1.616,17.5L83.2,260.384l.053-.014v-11.6l-.051.013-12.844-3.352-.821-8.89Z" transform="translate(-37.379 -180.177)" fill="#ebebeb"/>
      <path id="パス_48" data-name="パス 48" d="M127.89,199.783h14.2l-1.339,14.457L127.89,217.6v11.6l23.642-6.334.173-1.883,2.71-29.347.281-2.993H127.89v11.147Z" transform="translate(-82.298 -148.923)" fill="#fff"/>
      <path id="パス_49" data-name="パス 49" d="M127.89,135.115v.027h27.856l.231-2.506.525-5.651.276-2.991H127.89v11.12Z" transform="translate(-82.312 -106.114)" fill="#fff"/>
    </g>
    <g id="css-3" transform="translate(227.489 2040.242)">
      <path id="パス_50" data-name="パス 50" d="M46.145,170.766l-37.372-10-8.328-90H91.956l-8.337,89.99-37.475,10.01Z" transform="translate(-0.445 -70.766)" fill="#264de4"/>
      <path id="パス_51" data-name="パス 51" d="M158.51,169.785l7.178-77.728H128v85.9l30.51-8.176Z" transform="translate(-82.59 -85.695)" fill="#2965f1"/>
      <path id="パス_52" data-name="パス 52" d="M53.669,188.636,54.7,199.793H80.534V188.636Z" transform="translate(-34.636 -148.076)" fill="#ebebeb"/>
      <path id="パス_53" data-name="パス 53" d="M47.917,123.995l1.049,11.157H76.861V123.995Z" transform="translate(-30.947 -105.805)" fill="#ebebeb"/>
      <path id="パス_54" data-name="パス 54" d="M83.273,248.783l-.051.013L70.367,245.44l-.822-8.9H57.958l1.617,17.519,23.645,6.345.053-.014V248.783Z" transform="translate(-37.386 -179.499)" fill="#ebebeb"/>
      <path id="パス_58" data-name="パス 58" d="M154.721,146.577l2.084-22.583H127.89v11.157h16.265l-1.05,11.425H127.89v11.157H142.1l-1.34,14.47-12.874,3.359v11.608l23.663-6.339.174-1.885,2.712-29.374.282-3Z" transform="translate(-82.331 -106.143)" fill="#fff"/>
    </g>
  </g>
</svg>
