<svg xmlns="http://www.w3.org/2000/svg" width="20" height="20.003" viewBox="0 0 20 20.003">
  <path id="Icon_awesome-search-plus" data-name="Icon awesome-search-plus" d="M11.876,7.5V8.75a.47.47,0,0,1-.469.469H9.219v2.188a.47.47,0,0,1-.469.469H7.5a.47.47,0,0,1-.469-.469V9.219H4.844a.47.47,0,0,1-.469-.469V7.5a.47.47,0,0,1,.469-.469H7.032V4.844A.47.47,0,0,1,7.5,4.375H8.75a.47.47,0,0,1,.469.469V7.032h2.188A.47.47,0,0,1,11.876,7.5Zm7.852,11.122-1.106,1.106a.934.934,0,0,1-1.324,0l-3.9-3.895a.937.937,0,0,1-.273-.664v-.637a8.122,8.122,0,1,1,1.406-1.406h.637a.937.937,0,0,1,.664.273l3.895,3.895A.946.946,0,0,1,19.728,18.622Zm-6.289-10.5a5.313,5.313,0,1,0-5.313,5.313A5.308,5.308,0,0,0,13.438,8.125Z" fill="#009bfc"/>
</svg>
